<?xml version="1.0" standalone="yes"?>
<svg width="200" height="200">
<path style="fill:#000000; stroke:none;" d="M0 0L0 200L200 200L200 0L0 0z"/>
<path style="fill:#3da886; stroke:none;" d="M58 92L65 92L65 131L135 131L135 92L141 92C140.951 77.9983 123.101 69.3069 113 61.4244C109.574 58.7507 104.544 53.1464 100 52.8171C95.3841 52.4826 90.315 58.3683 87 60.9969C76.8647 69.0338 58.0499 77.8612 58 92z"/>
<path style="fill:#000000; stroke:none;" d="M99 64C92.3859 70.0739 80.5501 75.5448 76.0278 83.3002C71.1941 91.5894 75 111.44 75 121L125 121C125 111.286 128.596 92.6885 123.972 84.0895C119.9 76.5168 106.355 68.231 99 64z"/>
<path style="fill:#353837; stroke:none;" d="M80 95C78.5185 100.012 77.7322 108.675 79.3179 113.768C80.8581 118.715 85.0714 114.932 86 112C93.3887 112 102.74 110.447 109.896 112.314C112.762 113.062 115.361 117.508 118.582 115.712C122.017 113.797 121.096 107.235 120.961 104C120.563 94.4684 120.838 83.1684 108.996 79.7238C103.202 78.0384 91.1655 77.5089 86.2739 81.564C82.8168 84.43 74.8454 91.6282 80 95z"/>
<path style="fill:#000000; stroke:none;" d="M86 93L113 93C111.043 80.7212 88.7599 81.56 86 93M84 99L83 100L83 102L84 103L86 103L87 102L87 100L86 99L84 99M113 99L112 100L112 102L113 103L115 103L116 102L116 100L115 99L113 99z"/>
<path style="fill:#353837; stroke:none;" d="M10 136L10 148L15 145L16 148L21 148C20.8146 139.018 19.1213 136.007 10 136M22 136L22 148L31 148L31 136L22 136M41 148L41 144L36 144L36 140L41 140L41 136C29.2653 136.041 29.2653 147.959 41 148M42 136L42 148L47 148L47 144L49 144L49 148L53 148L53 136L49 136L49 140L47 140L47 136L42 136M56 136L55 148L60 145L61 148L66 148C65.9316 139.85 64.5896 136.03 56 136M67 136L67 148L73 145L74 148L78 148L77 136L67 136M79 136L79 148C93.0596 147.998 93.0596 136.002 79 136M95 148L100 145L101 148L106 148C105.96 133.582 95.0398 133.582 95 148M107 136L107 148L118 148L118 141C115.007 141.064 113.654 140.946 113 144L112 144L112 136L107 136M119 136L119 148L129 148L129 141L123 144L123 136L119 136M134 136L134 148L139 145L140 148L145 148C144.815 139.018 143.121 136.007 134 136M146 136L146 148L155 148L155 136L146 136M167 148L167 141C164.007 141.064 162.654 140.946 162 144L161 144L161 140L166 136C161.104 136.004 149.498 140.551 157.603 146.972C159.871 148.769 164.297 148 167 148M168 136L168 148L172 148L172 144L174 144L174 148L179 148L179 136L174 136L174 140L172 140L172 136L168 136M180 136L180 140L183 140L183 148L187 148L187 140L190 140L190 136L180 136z"/>
<path style="fill:#000000; stroke:none;" d="M14.3333 139.667L14.6667 140.333L14.3333 139.667M138.333 139.667L138.667 140.333L138.333 139.667M84 140L84 144L86 144L86 140L84 140M100.333 140.667L100.667 141.333L100.333 140.667z"/>
</svg>
